<svg xmlns="http://www.w3.org/2000/svg" xmlns:xlink="http://www.w3.org/1999/xlink" version="1.1" class="marks" width="627" height="359" viewBox="0 0 627 359"><rect width="627" height="359" fill="white"/><g fill="none" stroke-miterlimit="10" transform="translate(60,32)"><g class="mark-group role-frame root" role="graphics-object" aria-roledescription="group mark container"><g transform="translate(0,0)"><path class="background" aria-hidden="true" d="M0.5,0.5h560v290h-560Z" stroke="#ddd"/><g><g class="mark-group role-axis" aria-hidden="true"><g transform="translate(0.5,290.5)"><path class="background" aria-hidden="true" d="M0,0h0v0h0Z" pointer-events="none"/><g><g class="mark-rule role-axis-grid" pointer-events="none"><line transform="translate(99,-290)" x2="0" y2="290" stroke="#ddd" stroke-width="1" opacity="1"/><line transform="translate(198,-290)" x2="0" y2="290" stroke="#ddd" stroke-width="1" opacity="1"/><line transform="translate(298,-290)" x2="0" y2="290" stroke="#ddd" stroke-width="1" opacity="1"/><line transform="translate(398,-290)" x2="0" y2="290" stroke="#ddd" stroke-width="1" opacity="1"/><line transform="translate(498,-290)" x2="0" y2="290" stroke="#ddd" stroke-width="1" opacity="1"/></g></g><path class="foreground" aria-hidden="true" d="" pointer-events="none" display="none"/></g></g><g class="mark-group role-axis" aria-hidden="true"><g transform="translate(0.5,0.5)"><path class="background" aria-hidden="true" d="M0,0h0v0h0Z" pointer-events="none"/><g><g class="mark-rule role-axis-grid" pointer-events="none"><line transform="translate(0,290)" x2="560" y2="0" stroke="#ddd" stroke-width="1" opacity="1"/><line transform="translate(0,261)" x2="560" y2="0" stroke="#ddd" stroke-width="1" opacity="1"/><line transform="translate(0,232)" x2="560" y2="0" stroke="#ddd" stroke-width="1" opacity="1"/><line transform="translate(0,203)" x2="560" y2="0" stroke="#ddd" stroke-width="1" opacity="1"/><line transform="translate(0,174)" x2="560" y2="0" stroke="#ddd" stroke-width="1" opacity="1"/><line transform="translate(0,145)" x2="560" y2="0" stroke="#ddd" stroke-width="1" opacity="1"/><line transform="translate(0,116)" x2="560" y2="0" stroke="#ddd" stroke-width="1" opacity="1"/><line transform="translate(0,87)" x2="560" y2="0" stroke="#ddd" stroke-width="1" opacity="1"/><line transform="translate(0,58)" x2="560" y2="0" stroke="#ddd" stroke-width="1" opacity="1"/><line transform="translate(0,29)" x2="560" y2="0" stroke="#ddd" stroke-width="1" opacity="1"/><line transform="translate(0,0)" x2="560" y2="0" stroke="#ddd" stroke-width="1" opacity="1"/></g></g><path class="foreground" aria-hidden="true" d="" pointer-events="none" display="none"/></g></g><g class="mark-group role-axis" role="graphics-symbol" aria-roledescription="axis" aria-label="X-axis titled 'date' for a time scale with values from 2021 to 2026"><g transform="translate(0.5,290.5)"><path class="background" aria-hidden="true" d="M0,0h0v0h0Z" pointer-events="none"/><g><g class="mark-rule role-axis-tick" pointer-events="none"><line transform="translate(99,0)" x2="0" y2="5" stroke="#888" stroke-width="1" opacity="1"/><line transform="translate(198,0)" x2="0" y2="5" stroke="#888" stroke-width="1" opacity="1"/><line transform="translate(298,0)" x2="0" y2="5" stroke="#888" stroke-width="1" opacity="1"/><line transform="translate(398,0)" x2="0" y2="5" stroke="#888" stroke-width="1" opacity="1"/><line transform="translate(498,0)" x2="0" y2="5" stroke="#888" stroke-width="1" opacity="1"/></g><g class="mark-text role-axis-label" pointer-events="none"><text text-anchor="middle" transform="translate(98.62343572241183,15)" font-family="sans-serif" font-size="10px" fill="#000" opacity="1">2022</text><text text-anchor="middle" transform="translate(198.28213879408418,15)" font-family="sans-serif" font-size="10px" fill="#000" opacity="1">2023</text><text text-anchor="middle" transform="translate(297.94084186575657,15)" font-family="sans-serif" font-size="10px" fill="#000" opacity="1">2024</text><text text-anchor="middle" transform="translate(397.872582480091,15)" font-family="sans-serif" font-size="10px" fill="#000" opacity="1">2025</text><text text-anchor="middle" transform="translate(497.53128555176335,15)" font-family="sans-serif" font-size="10px" fill="#000" opacity="1">2026</text></g><g class="mark-rule role-axis-domain" pointer-events="none"><line transform="translate(0,0)" x2="560" y2="0" stroke="#888" stroke-width="1" opacity="1"/></g><g class="mark-text role-axis-title" pointer-events="none"><text text-anchor="middle" transform="translate(280,30)" font-family="sans-serif" font-size="11px" font-weight="bold" fill="#000" opacity="1">date</text></g></g><path class="foreground" aria-hidden="true" d="" pointer-events="none" display="none"/></g></g><g class="mark-group role-axis" role="graphics-symbol" aria-roledescription="axis" aria-label="Y-axis for a linear scale with values from 0 to 200,000,000"><g transform="translate(0.5,0.5)"><path class="background" aria-hidden="true" d="M0,0h0v0h0Z" pointer-events="none"/><g><g class="mark-rule role-axis-tick" pointer-events="none"><line transform="translate(0,290)" x2="-5" y2="0" stroke="#888" stroke-width="1" opacity="1"/><line transform="translate(0,261)" x2="-5" y2="0" stroke="#888" stroke-width="1" opacity="1"/><line transform="translate(0,232)" x2="-5" y2="0" stroke="#888" stroke-width="1" opacity="1"/><line transform="translate(0,203)" x2="-5" y2="0" stroke="#888" stroke-width="1" opacity="1"/><line transform="translate(0,174)" x2="-5" y2="0" stroke="#888" stroke-width="1" opacity="1"/><line transform="translate(0,145)" x2="-5" y2="0" stroke="#888" stroke-width="1" opacity="1"/><line transform="translate(0,116)" x2="-5" y2="0" stroke="#888" stroke-width="1" opacity="1"/><line transform="translate(0,87)" x2="-5" y2="0" stroke="#888" stroke-width="1" opacity="1"/><line transform="translate(0,58)" x2="-5" y2="0" stroke="#888" stroke-width="1" opacity="1"/><line transform="translate(0,29)" x2="-5" y2="0" stroke="#888" stroke-width="1" opacity="1"/><line transform="translate(0,0)" x2="-5" y2="0" stroke="#888" stroke-width="1" opacity="1"/></g><g class="mark-text role-axis-label" pointer-events="none"><text text-anchor="end" transform="translate(-7,293)" font-family="sans-serif" font-size="10px" fill="#000" opacity="1">0</text><text text-anchor="end" transform="translate(-7,264)" font-family="sans-serif" font-size="10px" fill="#000" opacity="1">2.0E+7</text><text text-anchor="end" transform="translate(-7,235)" font-family="sans-serif" font-size="10px" fill="#000" opacity="1">4.0E+7</text><text text-anchor="end" transform="translate(-7,206)" font-family="sans-serif" font-size="10px" fill="#000" opacity="1">6.0E+7</text><text text-anchor="end" transform="translate(-7,177)" font-family="sans-serif" font-size="10px" fill="#000" opacity="1">8.0E+7</text><text text-anchor="end" transform="translate(-7,148)" font-family="sans-serif" font-size="10px" fill="#000" opacity="1">1.0E+8</text><text text-anchor="end" transform="translate(-7,119)" font-family="sans-serif" font-size="10px" fill="#000" opacity="1">1.2E+8</text><text text-anchor="end" transform="translate(-7,90.00000000000001)" font-family="sans-serif" font-size="10px" fill="#000" opacity="1">1.4E+8</text><text text-anchor="end" transform="translate(-7,60.999999999999986)" font-family="sans-serif" font-size="10px" fill="#000" opacity="1">1.6E+8</text><text text-anchor="end" transform="translate(-7,31.999999999999993)" font-family="sans-serif" font-size="10px" fill="#000" opacity="1">1.8E+8</text><text text-anchor="end" transform="translate(-7,3)" font-family="sans-serif" font-size="10px" fill="#000" opacity="1">2.0E+8</text></g><g class="mark-rule role-axis-domain" pointer-events="none"><line transform="translate(0,290)" x2="0" y2="-290" stroke="#888" stroke-width="1" opacity="1"/></g></g><path class="foreground" aria-hidden="true" d="" pointer-events="none" display="none"/></g></g><g class="mark-line role-mark layer_0_marks" role="graphics-object" aria-roledescription="line mark container"><path aria-label="date: 2021; virusesPerPerson: 24940866" role="graphics-symbol" aria-roledescription="line mark" d="M0,253.836L0.819,271.024L1.911,260.984L2.73,267.59L3.823,277.47L4.642,275.52L5.734,273.884L6.553,286.127L7.645,282.126L10.375,278.657L11.468,281.611L12.287,286.579L13.379,286.053L14.198,287.179L15.29,289.52L16.109,289.353L17.201,287.565L18.02,286.22L19.113,289.238L19.932,280.64L21.024,284.516L21.843,281.066L22.935,289.091L23.754,289.24L24.846,286.884L25.666,286.049L26.758,287.32L27.577,287.28L28.669,287.961L29.488,289.197L30.307,288.677L31.399,288.258L32.491,288.261L33.311,289.869L34.403,289.868L35.222,289.868L36.314,289.866L37.133,289.455L38.225,289.861L38.498,289.376L40.683,289.843L41.775,289.393L42.321,289.863L43.686,289.334L44.232,289.865L45.597,289.404L46.416,289.227L47.782,288.235L48.328,287.698L50.512,289.386L51.604,285.47L52.15,289.376L53.515,284.644L54.061,284.709L55.427,278.826L55.973,279.647L57.338,277.56L57.884,275.519L59.249,269.005L59.795,278.481L61.16,270.755L61.706,284.81L63.072,279.616L63.618,279.484L64.983,284.701L65.529,212.355L67.713,278.393L68.805,271.464L71.263,270.872L72.628,277.021L73.174,275.183L74.539,280.803L76.997,280.199L78.362,283.873L78.635,283.944L78.908,286.531L80,286.323L80.273,288.101L80.546,288.451L81.911,288.473L82.184,287.674L82.457,287.69L82.73,285.932L83.823,285.943L84.096,285.18L85.734,285.408L86.28,285.857L86.553,289.116L87.645,288.163L87.918,282.117L88.464,287.252L89.556,286.8L90.102,286.029L90.375,284.958L91.468,285.631L91.741,278.618L92.014,278.344L92.287,279.382L93.379,277.973L93.652,276.439L93.925,275.586L95.29,274.435L99.113,230.962L99.386,195.657L99.659,205.304L99.932,123.856L101.024,134.202L101.297,139.359L101.57,135.977L103.208,150.688L103.481,233.612L103.754,234.031L104.027,135.753L104.846,137.498L105.119,15.036L105.392,19.531L105.666,208.161L106.758,210.572L107.031,260.596L107.304,255.603L107.577,263.155L108.669,263.039L108.942,267.347L109.215,276.852L109.488,267.484L110.58,269.472L110.853,275.549L111.126,274.335L111.399,274.776L112.491,274.868L112.765,281.396L113.038,283.366L113.311,284.662L114.403,284.019L114.676,285.612L114.949,286.259L115.222,288.078L116.314,287.919L116.587,286.024L116.86,286.53L117.133,288.048L118.225,288.389L118.498,286.401L118.771,286.732L119.044,288.684L120.137,288.615L120.41,288.741L120.683,288.5L120.956,286.252L122.048,286.148L122.321,287.579L122.594,287.155L122.867,286.292L123.959,286.573L124.232,284.395L124.505,282.457L124.778,281.058L125.87,281.717L126.143,284.521L126.416,283.369L126.689,283.191L127.782,282.504L128.055,276.465L128.328,269.133L128.601,271.457L129.693,269.672L129.966,262.136L130.239,263.393L130.512,259.436L131.604,253.04L131.877,257.475L132.15,267.485L132.423,269.017L133.515,267.468L133.788,253.059L134.061,245.443L134.334,253.729L135.427,241.798L135.7,237.136L135.973,241.525L136.246,237.408L137.338,231.329L137.611,242.806L137.884,244.237L138.157,240.593L139.249,237.707L139.522,237.849L139.795,267.512L140.068,267.533L140.341,247.194L141.16,238.93L141.433,231.882L141.706,219.912L141.98,247.655L143.072,258.747L143.345,259.848L143.618,261.55L143.891,256.701L144.983,264.676L145.256,265.358L145.529,262.504L145.802,261.714L146.075,263.001L146.894,259.414L147.167,258.381L147.44,265.217L147.713,267.688L148.805,263.061L149.078,263.609L149.352,265.336L149.625,264.69L149.898,263.907L150.717,256.888L150.99,259.524L151.263,261.954L151.536,260.025L152.628,253.086L152.901,257.512L153.174,260.042L153.447,254.745L154.539,257.625L154.812,259.735L155.085,252.824L155.358,243.588L156.451,252.935L156.724,259.827L156.997,259.069L157.27,249.265L158.362,246.831L158.635,256.558L158.908,262.798L159.181,257.798L160.273,258.805L160.546,266.047L160.819,267.288L161.092,269.539L162.184,268.975L162.457,270.332L162.73,267.904L163.003,266.725L164.096,270.808L164.369,264.782L164.642,265.761L164.915,267.422L166.28,266.581L166.553,267.879L166.826,264.945L167.099,271.544L167.918,270.102L168.191,271.915L168.464,273.001L168.737,257.153L169.829,259.539L170.102,279.128L170.375,277.624L170.648,276.972L171.741,225.068L172.287,276.481L172.56,277.069L173.652,269.275L173.925,271.2L174.198,267.147L174.471,265.39L175.563,269.378L175.836,270.296L176.109,282.152L176.382,279.294L177.474,279.119L177.747,270.905L178.02,269.242L178.294,275.822L179.386,276.206L179.659,278.92L179.932,277.024L180.205,279.515L181.297,280.436L181.57,277.851L181.843,270.254L182.116,273.016L183.208,281.665L183.481,280.269L183.754,280.715L184.027,280.939L185.119,282.336L185.392,279.69L185.666,278.823L185.939,271.339L187.031,266.491L187.304,273.97L187.577,276.099L188.942,272.116L189.215,270.657L189.488,263.731L189.761,263.889L190.853,269.756L191.126,272.399L191.399,270.768L191.672,256.815L192.765,255.202L193.038,256.038L193.311,253.654L193.584,249.638L194.676,244.853L194.949,246.83L195.222,236.373L195.495,227.563L196.587,230.613L196.86,232.003L197.133,199.507L197.406,196.2L197.679,216.067L198.498,192.203L198.771,190.821L199.044,226.948L199.317,229.797L199.59,216.578L200.41,230.884L200.683,272.073L200.956,267.523L201.229,266.58L202.321,270.771L202.594,261.158L202.867,255.704L203.14,262.907L204.232,266.458L204.505,266.626L204.778,265.1L205.051,254.196L206.143,248.558L206.416,250.093L206.689,251.038L206.962,259.584L208.055,258.335L208.328,263.658L208.601,269.163L208.874,264.508L209.966,266.512L210.239,251.383L210.512,254.12L210.785,271.187L211.877,274.594L212.15,277.717L212.423,274.335L212.696,272.271L213.788,273.293L214.061,277.833L214.334,278.521L214.608,276.686L215.7,276.418L215.973,278.374L216.246,278.597L216.519,275.107L217.611,278.133L217.884,277.706L218.157,276.987L218.43,277.179L219.522,276.011L219.795,279.775L220.068,276.489L220.341,274.31L221.433,273.167L221.706,275.25L221.98,263.881L222.253,253.012L223.345,265.206L223.618,270.041L223.891,274.101L224.164,280.176L225.256,279.828L225.529,279.456L225.802,278.431L226.075,281.975L227.167,280.556L227.44,280.127L227.713,283.105L227.986,283.35L229.078,281.573L229.352,280.677L229.625,284.175L229.898,283.234L230.99,279.549L231.263,276.318L231.536,277.421L231.809,277.92L232.901,274.798L233.174,279.658L233.447,286.889L233.72,285.844L234.812,286.079L235.085,281.742L235.358,279.716L235.631,283.021L236.724,284.28L236.997,285.213L237.27,284.307L237.543,283.84L238.908,284.822L239.181,284.238L239.454,280.743L239.727,283.38L240.546,286.504L241.092,285.765L241.365,283.378L242.457,283.938L242.73,285.319L243.003,286.753L243.276,285.954L244.642,284.067L245.188,283.968L245.461,284.536L246.28,284.421L246.553,284.193L246.826,283.174L247.099,272.156L248.464,278.54L249.01,275.152L250.375,281.329L250.922,266.287L252.287,272.006L252.833,259.334L254.198,252.122L254.744,248.349L256.109,254.681L256.655,241.563L258.02,251.657L258.567,257.214L258.84,247.461L259.932,251.363L260.478,231.039L261.843,247.928L262.389,244.684L263.754,235.522L264.3,219.968L265.666,220.503L266.212,214.754L266.485,237.99L267.577,254.666L268.123,226.849L269.488,245.615L270.034,232.936L270.307,240.321L271.399,236.262L271.945,238.031L273.038,243.097L273.311,261.904L273.857,238.633L275.222,251.21L275.768,250.747L277.133,259.174L277.679,265.732L277.952,265.524L279.044,267.734L279.59,237.457L280.956,259.028L281.502,264.008L282.867,264.202L283.413,256.428L284.778,269.518L285.324,269.03L286.689,250.335L287.235,255.231L288.601,251.424L289.147,239.603L290.512,248.897L291.058,221.176L292.423,251.043L292.969,203.695L294.334,228.713L294.881,167.392L296.519,176.357L296.792,163.604L297.065,136.258L298.157,146.652L298.703,110.365L298.976,136.431L300.068,202.261L300.614,189.062L301.98,180.884L302.526,178.227L302.799,130.091L303.891,162.427L304.437,91.551L305.802,198.921L306.348,193.197L307.713,218.029L308.259,174.474L309.625,190.192L310.171,153.701L311.536,223.237L312.082,171.075L313.447,224.978L313.993,187.123L315.358,237.67L315.904,243.309L317.27,261.125L317.816,262.716L319.181,267.21L319.727,260.192L321.092,270.414L321.638,253.924L323.003,266.334L323.549,267.742L324.915,268.785L325.461,278.724L326.826,274.637L327.372,272.886L328.737,280.349L329.283,276.796L330.648,277.315L331.195,283.625L332.56,279.798L333.106,276.304L334.471,276.443L335.017,273.022L336.382,281.766L336.928,272.677L338.294,272.548L338.84,272.468L339.113,257.161L340.205,274.591L340.751,269.918L342.116,260.987L342.662,260.672L344.027,262.629L344.573,256.721L344.846,250.266L345.939,254.053L346.485,240.289L348.396,230.389L349.761,235.814L350.307,242.618L351.672,180.976L352.218,169.456L353.584,149.463L354.13,133.268L355.495,83.092L356.041,93.693L357.406,135.588L357.952,75.736L359.317,70.896L359.863,111.655L361.229,163.38L361.775,162.974L363.14,124.809L363.686,153.899L365.051,143.29L365.597,152.549L365.87,167.356L366.962,195.314L367.509,185.631L368.874,184.912L369.42,205.422L370.785,229.42L371.331,241.282L372.696,241.16L373.242,246.269L374.608,255.15L375.154,260.972L376.519,258.339L377.065,248.066L378.43,250.589L378.976,251.123L380.341,268.337L380.887,267.604L381.16,269.184L382.253,271.474L382.799,266.28L384.164,265.375L384.71,266.696L384.983,280.149L386.075,273.817L386.621,268.153L387.986,275.562L388.532,268.012L389.898,247.181L390.444,265.005L391.809,256.123L392.355,247.401L393.72,247.322L394.266,242.263L395.631,244.898L396.177,246.352L397.543,237.32L398.089,243.843L399.454,228.803L400,240.301L401.365,225.634L401.911,238.841L403.276,232.421L403.549,250.342L403.823,242.076L404.096,227.355L405.188,244.191L405.734,236.078L407.099,255.216L407.645,156.841L409.01,259.456L409.556,237.599L410.922,236.976L411.468,244.297L412.833,244.22L413.379,252.705L414.744,235.184L415.29,248.83L416.655,245.597L417.201,254.871L418.567,246.283L419.113,242.634L420.478,245.104L421.024,238.284L422.389,230.154L422.935,254.96L424.3,265.608L424.846,269.275L425.119,269.489L426.212,264.853L426.758,269.521L428.123,265.239L428.669,269.676L430.034,267.593L430.58,269.41L431.945,276.929L432.491,274.134L432.765,272.903L433.857,270.305L434.403,282.469L435.768,276.173L436.314,281L437.679,279.463L438.225,280.442L438.498,274.799L439.59,274.262L440.137,278.763L441.502,271.817L442.048,275.27L443.413,273.351L443.959,278.799L445.324,275.923L445.87,265.301L447.235,274.83L447.782,278.335L449.147,276.789L449.693,274.108L451.058,273.371L451.604,267.981L452.969,263.95L453.515,263.265L454.881,249.661L455.427,252.894L456.792,236.822L457.338,246.416L458.703,246.998L459.249,243.43L460.614,230.621L461.16,245.975L462.526,234.424L463.072,224.411L464.437,225.061L464.983,221.301L465.256,217.717L466.348,237.394L466.894,247.718L468.259,256.436L468.805,253.322L470.171,256.186L470.717,253.79L472.082,270.917L472.628,273.623L473.993,271.253L474.539,272.956L475.904,278.261L476.451,273.752L477.816,270.172L478.362,273.516L479.727,280.628L480.273,277.198L481.638,280.319L482.184,279.409L483.276,278.228L483.549,278.42L484.096,281.659L485.461,281.254L486.007,283.413L487.372,281.948L487.918,281.798L489.283,283.955L489.829,277.733L491.195,278.413L491.741,278.304L493.106,275.75L493.652,274.367L494.744,273.517L495.836,269.345L496.928,255.529L497.474,268.911L498.84,268.28L499.386,275.163L500.751,276.062L501.297,279.727L502.389,279.329L502.662,277.684L502.935,276.958L503.208,276.024L503.481,274.832L504.573,258.314L505.119,261.786L506.485,271.39L507.031,262.567L508.396,274.014L508.942,272.741L509.215,273.146L510.307,249.801L510.853,277.275L512.218,272.404L512.765,270.277L514.13,272.948L514.676,273.912L516.041,275.968L516.587,278.396L517.952,278.011L518.498,274.495L519.863,276.476L520.41,276.963L520.683,277.828L521.775,275.764L522.321,276.123L523.686,281.614L524.232,279.584L525.597,279.529L526.143,281.836L527.509,284.39L528.055,287.105L529.42,284.023L529.966,286.962L531.331,284.179L531.877,283.788L532.15,285.586L533.242,284.926L533.788,286.142L535.154,286.065L535.7,286.325L537.065,286.223L537.338,286.022L537.611,286.138L537.884,286.727L538.976,286.296L539.249,286.216L539.522,288.474L540.887,286.811L541.433,286.857L541.706,286.858L542.799,285.835L543.345,288.584L544.71,286.365L545.256,285.137L546.621,286.335L547.167,287.738L548.532,286.014L549.078,287.214L550.444,282.726L550.99,286.375L552.355,279.674L552.901,283.242L554.266,279.707L554.812,274.96L556.177,276.289L556.724,282.649L558.089,263.467L558.635,271.148L560,256.778" stroke="#4285f4" stroke-width="1"/></g><g class="mark-line role-mark layer_1_marks" role="graphics-object" aria-roledescription="line mark container"><path aria-label="date: Jan 04, 2021; virusesPerPerson: 18177382.8945" role="graphics-symbol" aria-roledescription="line mark" d="M0,263.643L560,253.625" stroke="#4285f4" stroke-width="1.5" opacity="0.35"/></g><g class="mark-group role-title"><g transform="translate(-55,-27)"><path class="background" aria-hidden="true" d="M0,0h0v0h0Z" pointer-events="none"/><g><g class="mark-text role-title-text" role="graphics-symbol" aria-roledescription="title" aria-label="Title text 'Viral Particles Per Person: Raleigh'" pointer-events="none"><text text-anchor="start" transform="translate(0,14)" font-family="sans-serif" font-size="18px" font-weight="normal" fill="#5f6368" opacity="1">Viral Particles Per Person: Raleigh</text></g></g><path class="foreground" aria-hidden="true" d="" pointer-events="none" display="none"/></g></g></g><path class="foreground" aria-hidden="true" d="" display="none"/></g></g></g></svg>